<?xml version="1.0" encoding="utf-8"?>
<!-- Generator: Adobe Illustrator 26.0.0, SVG Export Plug-In . SVG Version: 6.00 Build 0)  -->
<svg version="1.1" id="Layer_1" xmlns="http://www.w3.org/2000/svg" xmlns:xlink="http://www.w3.org/1999/xlink" x="0px" y="0px"
	 viewBox="0 0 54 46" style="enable-background:new 0 0 54 46;" xml:space="preserve">
<style type="text/css">
	.st0{fill:url(#SVGID_1_);}
	.st1{fill:url(#SVGID_00000117664414320962581740000016948305765181124030_);}
</style>
<g>
	
		<linearGradient id="SVGID_1_" gradientUnits="userSpaceOnUse" x1="27" y1="38.5046" x2="27" y2="4.5925" gradientTransform="matrix(1 0 0 -1 0 48)">
		<stop  offset="0" style="stop-color:#1C1B2E"/>
		<stop  offset="0.9999" style="stop-color:#000000"/>
	</linearGradient>
	<path class="st0" d="M23.8,15.7c-0.9-1.2-2.1-2.2-4-2.9c0.9,2.1-0.1,3.6-1.6,5.9c-0.5,0.8-1.1,1.7-1.7,2.7l4.4,7.5l4.8-9.2
		C25.2,18.4,24.7,16.9,23.8,15.7L23.8,15.7z M26.9,16.7c2.9-6.6,8.1-6.7,14.1-6.7c1,0,2,0,3-0.1l4.3-7.6L5.6,2.2l4.2,7.6
		c0.5,0,1,0,1.6,0c2.8,0.1,5.6,0.2,8.5,0.8l0.1,0c2.7,0.8,4.5,2.2,5.6,3.8C26.1,15.2,26.5,15.9,26.9,16.7L26.9,16.7z M35.7,18.8
		c-1.5-2.5-2.6-4.2-1.9-5.9c-2.5,0.9-4.5,2.8-5.8,6.9l4.9,8.8l4.3-7.1C36.7,20.5,36.2,19.6,35.7,18.8z M33.9,31.3L28,41.8l-0.9,1.6
		l-1-1.6l-5-8.4l0,0l-1-1.7L14.4,22l-0.3-0.5l0.3-0.5c0.7-1.4,1.4-2.5,2.1-3.5c1.3-2,2.1-3.2,0.5-5.2c-1.8-0.2-3.7-0.3-5.6-0.3
		c-0.7,0-1.5,0-2.2-0.1l-0.6,0l-0.3-0.5L2.9,1.6L2,0l1.8,0l46.3,0.1l1.8,0l-0.9,1.6l-5.5,9.8L45.3,12l-0.6,0
		c-1.2,0.1-2.5,0.1-3.7,0.1c-1.4,0-2.7,0-4,0.1c-1.8,1.5-1,2.9,0.5,5.4c0.6,1,1.3,2.1,1.9,3.3l0.3,0.5l-0.3,0.5L33.9,31.3z
		 M22.2,31.2l4.8,7.9l4.7-8.4l-4.8-8.6L22.2,31.2z"/>
	
		<linearGradient id="SVGID_00000109008441607603260080000016960242390932938113_" gradientUnits="userSpaceOnUse" x1="27" y1="38.5046" x2="27" y2="4.5925" gradientTransform="matrix(1 0 0 -1 0 48)">
		<stop  offset="0" style="stop-color:#28E0B2"/>
		<stop  offset="0.9999" style="stop-color:#67FFD9"/>
		<stop  offset="1" style="stop-color:#16866A"/>
	</linearGradient>
	<path style="fill:url(#SVGID_00000109008441607603260080000016960242390932938113_);" d="M23.8,15.7c-0.9-1.2-2.1-2.2-4-2.9
		c0.9,2.1-0.1,3.6-1.6,5.9c-0.5,0.8-1.1,1.7-1.7,2.7l4.4,7.5l4.8-9.2C25.2,18.4,24.7,16.9,23.8,15.7L23.8,15.7z M26.9,16.7
		c2.9-6.6,8.1-6.7,14.1-6.7c1,0,2,0,3-0.1l4.3-7.6L5.6,2.2l4.2,7.6c0.5,0,1,0,1.6,0c2.8,0.1,5.6,0.2,8.5,0.8l0.1,0
		c2.7,0.8,4.5,2.2,5.6,3.8C26.1,15.2,26.5,15.9,26.9,16.7L26.9,16.7z M35.7,18.8c-1.5-2.5-2.6-4.2-1.9-5.9c-2.5,0.9-4.5,2.8-5.8,6.9
		l4.9,8.8l4.3-7.1C36.7,20.5,36.2,19.6,35.7,18.8z M33.9,31.3L28,41.8l-0.9,1.6l-1-1.6l-5-8.4l0,0l-1-1.7L14.4,22l-0.3-0.5l0.3-0.5
		c0.7-1.4,1.4-2.5,2.1-3.5c1.3-2,2.1-3.2,0.5-5.2c-1.8-0.2-3.7-0.3-5.6-0.3c-0.7,0-1.5,0-2.2-0.1l-0.6,0l-0.3-0.5L2.9,1.6L2,0l1.8,0
		l46.3,0.1l1.8,0l-0.9,1.6l-5.5,9.8L45.3,12l-0.6,0c-1.2,0.1-2.5,0.1-3.7,0.1c-1.4,0-2.7,0-4,0.1c-1.8,1.5-1,2.9,0.5,5.4
		c0.6,1,1.3,2.1,1.9,3.3l0.3,0.5l-0.3,0.5L33.9,31.3z M22.2,31.2l4.8,7.9l4.7-8.4l-4.8-8.6L22.2,31.2z"/>
</g>
</svg>
